<svg width="24" height="25" viewBox="0 0 24 25" fill="none" xmlns="http://www.w3.org/2000/svg">
<path d="M12 17.9819C11.4477 17.9819 11 18.4296 11 18.9819C11 19.5342 11.4477 19.9819 12 19.9819H12.01C12.5623 19.9819 13.01 19.5342 13.01 18.9819C13.01 18.4296 12.5623 17.9819 12.01 17.9819H12Z" fill="#2D3648"/>
<path fill-rule="evenodd" clip-rule="evenodd" d="M7 1.98193C5.34315 1.98193 4 3.32508 4 4.98193V20.9819C4 22.6388 5.34315 23.9819 7 23.9819H17C18.6569 23.9819 20 22.6388 20 20.9819V4.98193C20 3.32508 18.6569 1.98193 17 1.98193H7ZM6 4.98193C6 4.42965 6.44772 3.98193 7 3.98193H17C17.5523 3.98193 18 4.42965 18 4.98193V20.9819C18 21.5342 17.5523 21.9819 17 21.9819H7C6.44772 21.9819 6 21.5342 6 20.9819V4.98193Z" fill="#2D3648"/>
</svg>
