<svg width="24" height="25" viewBox="0 0 24 25" fill="none" xmlns="http://www.w3.org/2000/svg">
<g clip-path="url(#clip0_379_1841)">
<path fill-rule="evenodd" clip-rule="evenodd" d="M9 8.98193C8.44771 8.98193 8 9.42965 8 9.98193V15.9819C8 16.5342 8.44771 16.9819 9 16.9819H15C15.5523 16.9819 16 16.5342 16 15.9819V9.98193C16 9.42965 15.5523 8.98193 15 8.98193H9ZM10 14.9819V10.9819H14V14.9819H10Z" fill="#2D3648"/>
<path fill-rule="evenodd" clip-rule="evenodd" d="M9 0.981934C9.55229 0.981934 10 1.42965 10 1.98193V3.98193H14V1.98193C14 1.42965 14.4477 0.981934 15 0.981934C15.5523 0.981934 16 1.42965 16 1.98193V3.98193H18C19.6569 3.98193 21 5.32508 21 6.98193V8.98193H23C23.5523 8.98193 24 9.42965 24 9.98193C24 10.5342 23.5523 10.9819 23 10.9819H21V13.9819H23C23.5523 13.9819 24 14.4296 24 14.9819C24 15.5342 23.5523 15.9819 23 15.9819H21V18.9819C21 20.6388 19.6569 21.9819 18 21.9819H16V23.9819C16 24.5342 15.5523 24.9819 15 24.9819C14.4477 24.9819 14 24.5342 14 23.9819V21.9819H10V23.9819C10 24.5342 9.55229 24.9819 9 24.9819C8.44771 24.9819 8 24.5342 8 23.9819V21.9819H6C4.34315 21.9819 3 20.6388 3 18.9819V15.9819H1C0.447715 15.9819 0 15.5342 0 14.9819C0 14.4296 0.447715 13.9819 1 13.9819H3V10.9819H1C0.447715 10.9819 0 10.5342 0 9.98193C0 9.42965 0.447715 8.98193 1 8.98193H3V6.98193C3 5.32508 4.34315 3.98193 6 3.98193H8V1.98193C8 1.42965 8.44771 0.981934 9 0.981934ZM5 18.9819C5 19.5342 5.44772 19.9819 6 19.9819H18C18.5523 19.9819 19 19.5342 19 18.9819V6.98193C19 6.42965 18.5523 5.98193 18 5.98193H6C5.44772 5.98193 5 6.42965 5 6.98193V18.9819Z" fill="#2D3648"/>
</g>
<defs>
<clipPath id="clip0_379_1841">
<rect width="24" height="24" fill="white" transform="translate(0 0.981934)"/>
</clipPath>
</defs>
</svg>
