<svg width="24" height="25" viewBox="0 0 24 25" fill="none" xmlns="http://www.w3.org/2000/svg">
<path fill-rule="evenodd" clip-rule="evenodd" d="M10.5547 8.14988C10.2478 7.94531 9.8533 7.92624 9.52814 8.10026C9.20298 8.27428 9 8.61314 9 8.98193V16.9819C9 17.3507 9.20298 17.6896 9.52814 17.8636C9.8533 18.0376 10.2478 18.0186 10.5547 17.814L16.5547 13.814C16.8329 13.6285 17 13.3163 17 12.9819C17 12.6476 16.8329 12.3353 16.5547 12.1499L10.5547 8.14988ZM14.1972 12.9819L11 15.1134V10.8505L14.1972 12.9819Z" fill="#2D3648"/>
<path fill-rule="evenodd" clip-rule="evenodd" d="M12 1.98193C5.92487 1.98193 1 6.9068 1 12.9819C1 19.0571 5.92487 23.9819 12 23.9819C18.0751 23.9819 23 19.0571 23 12.9819C23 6.9068 18.0751 1.98193 12 1.98193ZM3 12.9819C3 8.01137 7.02944 3.98193 12 3.98193C16.9706 3.98193 21 8.01137 21 12.9819C21 17.9525 16.9706 21.9819 12 21.9819C7.02944 21.9819 3 17.9525 3 12.9819Z" fill="#2D3648"/>
</svg>
