<svg width="24" height="25" viewBox="0 0 24 25" fill="none" xmlns="http://www.w3.org/2000/svg">
<path d="M8.70711 7.68904C9.09763 7.29852 9.09763 6.66535 8.70711 6.27483C8.31658 5.8843 7.68342 5.8843 7.29289 6.27483L1.29289 12.2748C0.902369 12.6654 0.902369 13.2985 1.29289 13.689L7.29289 19.689C7.68342 20.0796 8.31658 20.0796 8.70711 19.689C9.09763 19.2985 9.09763 18.6654 8.70711 18.2748L3.41421 12.9819L8.70711 7.68904Z" fill="#2D3648"/>
<path d="M16.7071 6.27483C16.3166 5.8843 15.6834 5.8843 15.2929 6.27483C14.9024 6.66535 14.9024 7.29852 15.2929 7.68904L20.5858 12.9819L15.2929 18.2748C14.9024 18.6654 14.9024 19.2985 15.2929 19.689C15.6834 20.0796 16.3166 20.0796 16.7071 19.689L22.7071 13.689C23.0976 13.2985 23.0976 12.6654 22.7071 12.2748L16.7071 6.27483Z" fill="#2D3648"/>
</svg>
