<svg width="15" height="15" viewBox="0 0 15 15" fill="none" xmlns="http://www.w3.org/2000/svg">
<path fill-rule="evenodd" clip-rule="evenodd" d="M7.5 14.375C11.297 14.375 14.375 11.297 14.375 7.5C14.375 3.70304 11.297 0.625 7.5 0.625C3.70304 0.625 0.625 3.70304 0.625 7.5C0.625 11.297 3.70304 14.375 7.5 14.375ZM6.07857 2.05614C3.85551 2.63498 2.1675 4.53952 1.90933 6.875H4.40631C4.54644 5.14801 5.12444 3.49026 6.07857 2.05614ZM8.92143 2.05614C9.87556 3.49026 10.4536 5.14801 10.5937 6.875H13.0907C12.8325 4.53952 11.1445 2.63498 8.92143 2.05614ZM9.339 6.875C9.18201 5.17927 8.54355 3.56371 7.5 2.21925C6.45645 3.56371 5.81799 5.17927 5.66099 6.875H9.339ZM5.66099 8.125H9.339C9.18201 9.82073 8.54355 11.4363 7.5 12.7808C6.45645 11.4363 5.81799 9.82073 5.66099 8.125ZM4.40631 8.125H1.90933C2.1675 10.4605 3.85551 12.365 6.07857 12.9439C5.12444 11.5097 4.54644 9.85199 4.40631 8.125ZM8.92143 12.9439C9.87556 11.5097 10.4536 9.85199 10.5937 8.125H13.0907C12.8325 10.4605 11.1445 12.365 8.92143 12.9439Z" fill="white"/>
</svg>
