<svg width="24" height="18" viewBox="0 0 24 18" fill="none" xmlns="http://www.w3.org/2000/svg">
<path fill-rule="evenodd" clip-rule="evenodd" d="M10.2443 4.61072C9.9348 4.43468 9.55499 4.43653 9.24718 4.61559C8.93937 4.79464 8.75 5.12388 8.75 5.47998V12.02C8.75 12.3761 8.93937 12.7053 9.24718 12.8844C9.55499 13.0634 9.9348 13.0653 10.2443 12.8892L15.9943 9.61925C16.3069 9.44148 16.5 9.10958 16.5 8.74998C16.5 8.39039 16.3069 8.05848 15.9943 7.88072L10.2443 4.61072ZM13.4771 8.74998L10.75 10.3009V7.19907L13.4771 8.74998Z" fill="#2D3648"/>
<path fill-rule="evenodd" clip-rule="evenodd" d="M11.9999 0L11.9202 0.000114739C11.8686 0.000228763 11.793 0.000456095 11.6964 0.000909448C11.5032 0.00181603 11.2257 0.00362682 10.8875 0.00724471C10.2115 0.0144762 9.29111 0.0289468 8.31538 0.0579413C7.34125 0.0868881 6.30398 0.130537 5.39671 0.196712C4.51741 0.260847 3.67537 0.351232 3.14172 0.493952L3.12785 0.497769C2.48776 0.678861 1.9068 1.02566 1.44364 1.50315C0.980479 1.98063 0.651527 2.57189 0.490009 3.21719C0.484598 3.23881 0.479912 3.2606 0.475958 3.28253C0.150649 5.08643 -0.00864589 6.91636 6.83708e-05 8.74933C-0.0111821 10.5961 0.148126 12.44 0.475965 14.2575C0.481823 14.29 0.489286 14.3222 0.498325 14.3539C0.676391 14.9792 1.01271 15.5479 1.47479 16.0052C1.93687 16.4626 2.5091 16.793 3.13617 16.9645L3.14172 16.966C3.67537 17.1088 4.51741 17.1992 5.39671 17.2633C6.30398 17.3295 7.34125 17.3731 8.31538 17.4021C9.29111 17.4311 10.2115 17.4455 10.8875 17.4528C11.2257 17.4564 11.5032 17.4582 11.6964 17.4591C11.793 17.4595 11.8686 17.4598 11.9202 17.4599L11.9996 17.46L12.08 17.4599C12.1316 17.4598 12.2071 17.4595 12.3038 17.4591C12.497 17.4582 12.7745 17.4564 13.1127 17.4528C13.7886 17.4455 14.7091 17.4311 15.6848 17.4021C16.6589 17.3731 17.6962 17.3295 18.6035 17.2633C19.4828 17.1992 20.3248 17.1088 20.8584 16.966L20.8723 16.9622C21.5124 16.7811 22.0934 16.4343 22.5565 15.9569C23.0197 15.4794 23.3486 14.8881 23.5102 14.2428C23.5156 14.2212 23.5203 14.1994 23.5242 14.1774C23.8471 12.3869 24.0063 10.5707 24.0001 8.75133C24.0114 6.90432 23.8521 5.06021 23.5242 3.24249L22.5401 3.42L23.5102 3.17719C23.3486 2.53189 23.0197 1.94063 22.5565 1.46315C22.0934 0.985664 21.5124 0.638862 20.8723 0.457769C20.8607 0.454482 20.849 0.451407 20.8373 0.448543C20.3116 0.320168 19.4768 0.237978 18.5972 0.179398C17.6916 0.119094 16.6558 0.079282 15.6822 0.0528679C14.7072 0.0264141 13.7874 0.0132093 13.1117 0.00661021C12.7737 0.00330883 12.4964 0.00165659 12.3034 0.000829518C12.2068 0.000415921 12.1313 0.000208557 12.0798 0.000104606L11.9999 0ZM12.0001 1L12.0001 2L12.0758 2.0001L12.2948 2.00081C12.4847 2.00162 12.7583 2.00325 13.0922 2.00651C13.7603 2.01304 14.668 2.02609 15.628 2.05213C16.5894 2.07822 17.596 2.11716 18.4643 2.17498C19.3427 2.23348 20.005 2.3072 20.345 2.38717C20.6396 2.47373 20.907 2.63509 21.1209 2.85566C21.3321 3.07333 21.484 3.3412 21.5625 3.63377C21.8644 5.32008 22.0109 7.03058 22.0001 8.74372L22.0001 8.75359C22.0062 10.4409 21.8597 12.1253 21.5625 13.7863C21.484 14.0788 21.3321 14.3467 21.1209 14.5643C20.9045 14.7875 20.6334 14.95 20.3347 15.0358C20.006 15.1224 19.3461 15.2038 18.458 15.2686C17.5915 15.3318 16.5863 15.3744 15.6254 15.4029C14.6661 15.4314 13.759 15.4457 13.0913 15.4529C12.7576 15.4564 12.4841 15.4582 12.2944 15.4591C12.1995 15.4596 12.1256 15.4598 12.0756 15.4599H11.9246C11.8746 15.4598 11.8007 15.4596 11.7058 15.4591C11.516 15.4582 11.2426 15.4564 10.9089 15.4529C10.2411 15.4457 9.33406 15.4314 8.37479 15.4029C7.41391 15.3744 6.40869 15.3318 5.5422 15.2686C4.65028 15.2035 3.98854 15.1217 3.66122 15.0347C3.36702 14.9537 3.09857 14.7984 2.88166 14.5837C2.67461 14.3788 2.52119 14.1264 2.43456 13.8487C2.13479 12.1681 1.98934 10.4635 2.00006 8.75628L2.00007 8.74506C1.99167 7.04482 2.13815 5.34737 2.43769 3.67375C2.51618 3.38119 2.66809 3.11333 2.87922 2.89566C3.09566 2.67253 3.36674 2.51 3.66544 2.42419C3.99421 2.3376 4.65409 2.25619 5.5422 2.19141C6.40869 2.12821 7.41391 2.08561 8.37479 2.05706C9.33406 2.02855 10.2411 2.01427 10.9089 2.00713C11.2426 2.00356 11.516 2.00178 11.7058 2.00089C11.8007 2.00044 11.8746 2.00022 11.9246 2.00011L11.9991 2L12.0001 1Z" fill="#2D3648"/>
</svg>
